<svg xmlns="http://www.w3.org/2000/svg" width="37.394" height="37.39" viewBox="0 0 37.394 37.39">
  <path id="Path_1726" data-name="Path 1726" d="M480.3,101.641a1.822,1.822,0,0,0-2.232-1.024,5.248,5.248,0,0,0-4.359,4.4l-.546,6.679a3.744,3.744,0,0,0-.862-.26,8.362,8.362,0,0,0-.269-1.954,6.277,6.277,0,0,0-2.5-3.355,3.807,3.807,0,0,0,.3-2.807,3.714,3.714,0,0,0-2-2.4,3.492,3.492,0,0,0-.438-.151c-.08-.024-.191-.057-.259-.082-.048-.086-.125-.246-.175-.35a4.666,4.666,0,0,0-.233-.447,5.914,5.914,0,0,0-1.794-1.786,3.812,3.812,0,0,0-.054-3.7,3.691,3.691,0,0,0-3.259-1.889h-.078a3.656,3.656,0,0,0-3.229,1.994,3.824,3.824,0,0,0,.005,3.593,5.938,5.938,0,0,0-1.794,1.787,5.5,5.5,0,0,0-.258.487c-.048.1-.116.233-.159.313-.071.025-.188.057-.271.08a3.2,3.2,0,0,0-.483.16,3.672,3.672,0,0,0-1.937,2.43,3.777,3.777,0,0,0,.305,2.766,6.276,6.276,0,0,0-2.5,3.352,8.381,8.381,0,0,0-.269,1.953,3.633,3.633,0,0,0-.862.26l-.536-6.617,0-.025a5.3,5.3,0,0,0-2.546-3.785c-.564-.326-2.26-1.053-3.322-.5a1.426,1.426,0,0,0-.758,1.222l0,.017.035,16.459.286.564,7.658,7.646a4.565,4.565,0,0,1,.032.87c-.019.852-.043,1.912,1.112,2.342l.065.024h7.61l.089-.051a1.634,1.634,0,0,0,.979-1.33l0-.031,0-.031c-.079-1.455-.031-3,.015-4.486a49.3,49.3,0,0,0-.013-4.965,4.949,4.949,0,0,0-4.281-4.628l-.555-.57h11.328l-.556.57a4.962,4.962,0,0,0-4.28,4.628,49.36,49.36,0,0,0-.013,4.964c.046,1.49.094,3.032.015,4.487l0,.031,0,.031a1.635,1.635,0,0,0,.979,1.33l.089.051h7.6l.053-.016a1.734,1.734,0,0,0,1.135-1.407v-1.771L480,119.04l.325-.565V101.708Zm-26.38,9.264a3.411,3.411,0,0,1,.832-1.888,3.131,3.131,0,0,1,3.5-.664,3.058,3.058,0,0,1,1.906,2.553Zm12.325-5.737h0a.777.777,0,0,1-.726-.389.965.965,0,0,1,0-.929.757.757,0,0,1,.694-.359h.022a.839.839,0,0,1,.008,1.676m2.233,3.819a3.394,3.394,0,0,1,.862,1.918H463.1a3.063,3.063,0,0,1,1.871-2.542,3.133,3.133,0,0,1,3.509.624m-4.426-7.7a1.69,1.69,0,0,0-.247.17,3.759,3.759,0,0,0-.863,4.687,5.7,5.7,0,0,0-1.313,1.155,5.524,5.524,0,0,0-1.31-1.154,3.637,3.637,0,0,0,.392-2.542,3.984,3.984,0,0,0-1.538-2.387,3.075,3.075,0,0,1,1.716-1.077,3.252,3.252,0,0,1,2.476.423,3.447,3.447,0,0,1,.765.676l-.079.049m-7.835,3.06a.785.785,0,0,1,.807-.851.751.751,0,0,1,.715.358.965.965,0,0,1,0,.929.778.778,0,0,1-.726.389h0a.782.782,0,0,1-.8-.826m13.542,20.835-.032.036a1.28,1.28,0,0,0-.33.632V127h-4.02v-8.018a2.219,2.219,0,0,1,1.3-1.587,2.26,2.26,0,0,1,.562-.094,3.378,3.378,0,0,0,.511-.07c.421-.1,1-.685,1.9-1.638.327-.347.637-.674.814-.821a1.365,1.365,0,0,1,1.712-.31,1.7,1.7,0,0,1,.632.765c-.221.267-1.068,1.079-1.643,1.631-.614.589-1.144,1.1-1.315,1.3l-.023.028a1.53,1.53,0,0,0-.42.815,1.477,1.477,0,0,0,.673,1.518,1.559,1.559,0,0,0,1.723-.164,33.419,33.419,0,0,0,3.514-3.5,1.982,1.982,0,0,0,.429-.895l.885-10.639a2.311,2.311,0,0,1,.786-1.3v13.511Zm-7.9-28.085a.817.817,0,0,1-.83-.224.975.975,0,0,1-.164-.932.722.722,0,0,1,.6-.484.846.846,0,0,1,.4,1.64M457.881,127h-4.02v-1.152a1.28,1.28,0,0,0-.33-.632l-7.681-7.681V104.021a2.379,2.379,0,0,1,.786,1.3l.881,10.609,0,.029a1.987,1.987,0,0,0,.429.895,33.421,33.421,0,0,0,3.514,3.5,1.5,1.5,0,0,0,2.03-.081,1.544,1.544,0,0,0-.079-2.117c-.171-.205-.7-.714-1.316-1.3-.57-.547-1.408-1.35-1.637-1.623a1.917,1.917,0,0,1,.548-.742c.968-.611,1.747.133,2.824,1.34a7.094,7.094,0,0,0,1.22,1.178,2.062,2.062,0,0,0,.989.284,2.4,2.4,0,0,1,.5.085,2.211,2.211,0,0,1,1.339,1.6Z" transform="translate(-442.93 -92.525)" fill="#63a37b"/>
</svg>
