<svg xmlns="http://www.w3.org/2000/svg" width="41.017" height="44.959" viewBox="0 0 41.017 44.959">
  <g id="Group_388" data-name="Group 388" transform="translate(-1008 -3304.041)">
    <path id="Path_1722" data-name="Path 1722" d="M1235.2,125.46a13.369,13.369,0,0,0-2.632-15.444,13.167,13.167,0,0,0-21.658,13.118,16.357,16.357,0,0,0,3.239,5.595c1.562,2.014,3.037,3.916,3.064,6.5l.009.891h2.661l.094-.795c.408-3.442-1.513-5.886-3.371-8.25-1.408-1.791-2.738-3.484-3.036-5.538-1-6.864,3.3-10.562,7.288-11.643,4.2-1.141,9.753.157,12,5.7,2.1,5.179.144,7.864-2.123,10.973-1.629,2.234-3.476,4.767-3.791,8.411l-.054.621.562.269a1.669,1.669,0,0,0,1.519.05c.874-.436,1.1-1.563,1.323-2.653a7.47,7.47,0,0,1,.36-1.37,14.742,14.742,0,0,1,2.174-3.1,18.529,18.529,0,0,0,2.368-3.331" transform="translate(-194.818 3204.984)" fill="#63a37b"/>
    <rect id="Rectangle_177" data-name="Rectangle 177" width="3.037" height="6.065" transform="translate(1037.686 3335.748) rotate(-43.96)" fill="#63a37b"/>
    <rect id="Rectangle_178" data-name="Rectangle 178" width="6.065" height="3.037" transform="translate(1042.952 3323.101)" fill="#63a37b"/>
    <rect id="Rectangle_179" data-name="Rectangle 179" width="6.065" height="3.037" transform="translate(1037.406 3313.051) rotate(-45.004)" fill="#63a37b"/>
    <rect id="Rectangle_180" data-name="Rectangle 180" width="6.065" height="3.037" transform="matrix(0.694, -0.72, 0.72, 0.694, 1012.764, 3337.749)" fill="#63a37b"/>
    <rect id="Rectangle_181" data-name="Rectangle 181" width="6.065" height="3.037" transform="translate(1008 3323.101)" fill="#63a37b"/>
    <rect id="Rectangle_182" data-name="Rectangle 182" width="3.037" height="6.065" transform="translate(1013.175 3311.337) rotate(-45)" fill="#63a37b"/>
    <rect id="Rectangle_183" data-name="Rectangle 183" width="3.037" height="6.065" transform="translate(1027.152 3304.041)" fill="#63a37b"/>
    <rect id="Rectangle_184" data-name="Rectangle 184" width="12.708" height="3.037" transform="translate(1022.314 3341.887)" fill="#63a37b"/>
    <rect id="Rectangle_185" data-name="Rectangle 185" width="8.045" height="3.037" transform="translate(1024.621 3345.963)" fill="#63a37b"/>
  </g>
</svg>
