<svg xmlns="http://www.w3.org/2000/svg" width="47.974" height="31.739" viewBox="0 0 47.974 31.739">
  <path id="Path_1724" data-name="Path 1724" d="M825.648,118.637c-1.214-1.909-2.42-3.87-3.588-5.766-1.663-2.7-3.384-5.5-5.156-8.2l-.052-.063a3.729,3.729,0,0,0-4.858-.391,3.658,3.658,0,0,0-1.26,4.614,5.59,5.59,0,0,0,.413.676c.05.075.114.17.174.263-.245,0-.561-.008-.757-.021a12.082,12.082,0,0,1-2.661-.564,10.647,10.647,0,0,0-3.545-.6,21.51,21.51,0,0,0-7.686,1.8,6.026,6.026,0,0,1-3.5-.939,3.913,3.913,0,0,0,.091-4,3.691,3.691,0,0,0-3.684-1.843c-1.876.211-2.675,1.583-3.448,2.909-.115.2-.231.4-.351.593-1.142,1.864-2.273,3.777-3.366,5.627-1.191,2.017-2.423,4.1-3.673,6.126l-.015.027a3.756,3.756,0,0,0,6.17,4.239,2.316,2.316,0,0,0,.15-.226c.022-.036.053-.086.088-.14l.471.669c-.027.076-.06.153-.094.233a3.117,3.117,0,0,0-.175.484,3.188,3.188,0,0,0,.656,2.87,3.525,3.525,0,0,0,2.681,1.219,3.436,3.436,0,0,0,3.292,2.256,3.388,3.388,0,0,0,3.286,2.258h.007a3.228,3.228,0,0,0,1.7,1.914,3.475,3.475,0,0,0,3.041-.051,1.875,1.875,0,0,0,.275-.184c.035-.026.085-.064.125-.091a15.116,15.116,0,0,0,4.44.895c.109,0,.216.007.321.007a4.118,4.118,0,0,0,3.94-2.272,3.2,3.2,0,0,0,2.985-2.816,3.131,3.131,0,0,0,1.914-.934,3.256,3.256,0,0,0,.911-2.031,2.775,2.775,0,0,0,2.123-1.678,4.18,4.18,0,0,0,.169-1.851c0-.037-.005-.075-.008-.112a11.175,11.175,0,0,0,1.4-1.053c.122-.1.247-.207.373-.31a4.359,4.359,0,0,0,1.592,1.685,3.666,3.666,0,0,0,4.528-.633,3.71,3.71,0,0,0,.553-4.6m-2.52,2.825a1.123,1.123,0,0,1-1.486-.046l-8.557-13.829a1.041,1.041,0,0,1,.127-.89,1.15,1.15,0,0,1,.856-.553,1.136,1.136,0,0,1,.982.454l8.316,13.4a1.085,1.085,0,0,1-.238,1.465m-32.047-13.8-8.255,13.829A1.118,1.118,0,0,1,781,120.223l8.229-13.663.041-.03a1.281,1.281,0,0,1,.479-.268,1.205,1.205,0,0,1,1.125.359,1.1,1.1,0,0,1,.208,1.04m15.467,13.418a1.267,1.267,0,0,0-.607,1.005,1.287,1.287,0,0,0,.443,1.107l5.9,3.5a.694.694,0,0,1-.129.612,1.308,1.308,0,0,1-1.117.266l-5.188-2.835-.054-.024a1.387,1.387,0,0,0-1.16.1,1.226,1.226,0,0,0-.6.867,1.367,1.367,0,0,0,.893,1.556l.15.087c.843.5,1.724.969,2.577,1.422.591.314,1.2.637,1.79.968a.4.4,0,0,1-.051.351,1.06,1.06,0,0,1-.825.3l-4.481-2.3-.028-.013a1.539,1.539,0,0,0-.593-.123,1.271,1.271,0,0,0-1.01.48,1.289,1.289,0,0,0-.148.232,3.239,3.239,0,0,0-1.883-1.426,3.4,3.4,0,0,0-2.171-3.427c.013-.06.026-.122.037-.171a3.339,3.339,0,0,0,.089-.5,3.108,3.108,0,0,0-1.419-2.7,3.547,3.547,0,0,0-2.985-.51,3.321,3.321,0,0,0-3.92-1.459,4.792,4.792,0,0,0-2.421,2.2c-.143.208-.28.409-.421.6-.072-.106-.149-.231-.22-.347a6.454,6.454,0,0,0-.357-.542l5.168-8.641a8.386,8.386,0,0,0,2.366,1.016c.044.012.122.025.215.041l.017,0c-.144.282-.3.568-.458.847-.243.435-.494.886-.691,1.334a2.867,2.867,0,0,0,.09,2.9,2.72,2.72,0,0,0,1.9,1.25,5.529,5.529,0,0,0,4-1.135,7.049,7.049,0,0,0,1.34-1.5,4.1,4.1,0,0,0,1.617-.216,1.74,1.74,0,0,0,.322-.155.893.893,0,0,1,.217-.1c.062,0,.7.067,4.231,2.322,2.222,1.42,4.394,3.008,6.494,4.543l1.018.743a2.581,2.581,0,0,1,.1.906,1.408,1.408,0,0,1-.649.109c-.89-.485-1.788-1.05-2.656-1.6-1.027-.645-2.088-1.312-3.159-1.865l-.058-.03a1.348,1.348,0,0,0-1.516-.064m-4.2,10.935a3.264,3.264,0,0,0,.451-1.661,24.559,24.559,0,0,0,2.18,1.138c.479.231.972.467,1.44.718a2.014,2.014,0,0,1-.546.35,8.992,8.992,0,0,1-2.408-.114,9.8,9.8,0,0,1-1.234-.271,1.132,1.132,0,0,0,.118-.161m-4.569-.5a16.939,16.939,0,0,1,1.159-1.608,1.317,1.317,0,0,1,.287-.161.857.857,0,0,1,.815.223.559.559,0,0,1,.07.583,16.1,16.1,0,0,1-1.129,1.576.782.782,0,0,1-.975.094.563.563,0,0,1-.227-.708m-9.9-6.638a22.3,22.3,0,0,1,1.6-2.271c.367-.479.746-.974,1.095-1.481a1.032,1.032,0,0,1,.487-.22h0a.718.718,0,0,1,.661.34.567.567,0,0,1-.007.612l-2.733,3.606a.826.826,0,0,1-.832-.021.58.58,0,0,1-.268-.564m3.3,2.2c.378-.511.758-1.064,1.126-1.6a32.456,32.456,0,0,1,1.989-2.7.787.787,0,0,1,1.221-.142c.27.228.3.33-.008.812a27,27,0,0,1-1.641,2.194c-.525.655-1.067,1.332-1.53,2.018a.8.8,0,0,1-.891.055.582.582,0,0,1-.266-.638m3.3,2.174,2.086-2.833a1.363,1.363,0,0,1,.269-.149.844.844,0,0,1,.83.245.571.571,0,0,1,.03.627,30.012,30.012,0,0,1-2.039,2.758.737.737,0,0,1-.923.066.612.612,0,0,1-.252-.714m8.055-15.907a2.025,2.025,0,0,0-.419.041,1.947,1.947,0,0,0-.557.244,1.4,1.4,0,0,1-.483.207,1.775,1.775,0,0,1-.409-.013,2.745,2.745,0,0,0-.392-.023,2.386,2.386,0,0,0-1.977,1.291,3.142,3.142,0,0,1-.895.951c-.566.347-1.637.606-1.818.44h0a.394.394,0,0,1,0-.27,23.173,23.173,0,0,1,1.361-2.644l.027-.044a1.932,1.932,0,0,1,.181-.27c1.045-1.222,6.3-2.145,8.223-2a6.5,6.5,0,0,1,1.557.4c.313.108.636.22.954.3a11.292,11.292,0,0,0,4.832.317l4.795,7.611c-.213.22-.566.563-.65.637a10.089,10.089,0,0,1-1.041.791q-.909-.649-1.815-1.305c-2.109-1.524-4.29-3.1-6.548-4.488l-.223-.138c-1.612-1-3.409-2.036-4.7-2.036" transform="translate(-778.229 -103.502)" fill="#63a37b"/>
</svg>
