<svg xmlns="http://www.w3.org/2000/svg" width="43.282" height="37.859" viewBox="0 0 43.282 37.859">
  <path id="Path_1720" data-name="Path 1720" d="M23.353,123.775l1.487-3.316c2.835-5.8,10.788-8.837,16.961-7.966,2.02.285,1.46,2.788,1.237,4.242-1.132,7.367-5.22,12.309-12.18,14.8-2.852,1.021-6.319,1.036-6.661,4.806-.287,3.167.27,6.67-.078,9.871-.8,1.748-3.563,1.62-3.807-.427-.359-3.011.293-6.718.012-9.792-.078-.856-.222-1.024-1.024-1.337-1.605-.626-3.6-.965-5.311-1.6C5.195,129.762.666,123.13.082,113.741c-.249-4-.175-4.3,3.8-4.138,9,.363,17.432,4.872,19.471,14.172m-3.376,2.7c-.84-8.288-8.119-12.547-15.849-12.984a16.728,16.728,0,0,0,14.164,16.861,19.631,19.631,0,0,0-2.19-2.614c-1.006-.975-4.176-3.027-4.7-3.9a1.878,1.878,0,0,1,2.174-2.848,29.507,29.507,0,0,1,3.7,2.871c.928.83,1.7,1.853,2.694,2.616M39.2,116.189c-7.738.326-12.529,5.629-13.321,13.15,2.57-1.014,5.3-1.683,7.61-3.265,3.354-2.3,4.923-6.009,5.711-9.885" transform="translate(0 -109.571)" fill="#63a37b"/>
</svg>
