<svg xmlns="http://www.w3.org/2000/svg" width="186" height="80.577" viewBox="0 0 186 80.577">
  <g id="Group_330" data-name="Group 330" transform="translate(-410 1246)">
    <path id="Path_1649" data-name="Path 1649" d="M5.75,57.769,18.46,70.454V17.266L5.75,29.976a19.669,19.669,0,0,0,0,27.793" transform="translate(410 -1252.141)" fill="#007643"/>
    <path id="Path_1650" data-name="Path 1650" d="M40.081,21.226l5.294,5.294,5.319,5.319,5.318,5.293,5.294-5.293L40.056,0,34.762,5.294l-5.294,5.294,5.294,5.318Z" transform="translate(399.52 -1246)" fill="#007643"/>
    <path id="Path_1651" data-name="Path 1651" d="M56.063,59.468l-5.319,5.294-5.318,5.319-5.294,5.293-5.319,5.319-5.294,5.319,5.294,5.294L40.107,96.6,61.357,64.762Z" transform="translate(399.502 -1267.15)" fill="#007643"/>
    <path id="Path_1652" data-name="Path 1652" d="M105.677,62.547a24.624,24.624,0,0,0,34.869,0l-7.137-7.135a14.514,14.514,0,0,1-20.644,0,14.738,14.738,0,0,1,0-20.6,14.513,14.513,0,0,1,20.644,0l7.137-7.137a24.708,24.708,0,0,0-17.436-7.232c-22.3,0-31.574,27.157-17.434,42.1" transform="translate(374.807 -1253.272)" fill="#404041" fill-rule="evenodd"/>
    <path id="Path_1653" data-name="Path 1653" d="M166.435,62.223l5.584-6.323a8.563,8.563,0,0,0,3.4,4.092,9.589,9.589,0,0,0,5.264,1.492,8.6,8.6,0,0,0,5.584-1.669,5.488,5.488,0,0,0,2.054-4.494q0-3.337-6.837-6.643-2.214-1.059-3.5-1.733-6.162-3.209-8.538-6.275a11.569,11.569,0,0,1-2.376-7.3,11.763,11.763,0,0,1,4.607-9.548q4.605-3.739,11.955-3.74A16.818,16.818,0,0,1,191,21.574a14.978,14.978,0,0,1,5.472,4.67l-5.938,5.681a7.269,7.269,0,0,0-2.808-3.066,8.3,8.3,0,0,0-4.22-1.01,7.38,7.38,0,0,0-4.815,1.492,4.76,4.76,0,0,0-1.829,3.867q0,3.724,7.253,6.8,1.445.61,2.215.963a24.78,24.78,0,0,1,8.842,6.162,11.869,11.869,0,0,1,2.872,7.831,13.284,13.284,0,0,1-4.51,10.543q-4.509,3.932-12.116,3.932a21.079,21.079,0,0,1-9.244-1.862,12.5,12.5,0,0,1-5.744-5.36" transform="translate(350.807 -1253.142)" fill="#404041" fill-rule="evenodd"/>
    <path id="Path_1654" data-name="Path 1654" d="M243.22,47a11.969,11.969,0,0,0,7.917-4.211,12.97,12.97,0,0,0,3.065-8.693q0-7.007-4.48-10.494t-13.477-3.488H221.152V69.435H231.7V46.391l12.971,23.044h12.162Zm-1.482-7.26q-2.056,1.4-8.457,1.4H231.7V28.165h1.583q6.1,0,8.3,1.532t2.207,5.171Q243.792,38.34,241.738,39.738Z" transform="translate(331.347 -1253.153)" fill="#404041" fill-rule="evenodd"/>
    <path id="Path_1655" data-name="Path 1655" d="M278.025,20.505h-1.5v-.423h3.461v.423h-1.5v3.461h-.464Z" transform="translate(311.653 -1253.142)" fill="#404041"/>
    <path id="Path_1656" data-name="Path 1656" d="M283.082,20.308v3.659h-.464V20.082h.852l1.1,2.307,1.1-2.307h.847v3.885h-.458V20.308l-1.456,3h-.069Z" transform="translate(309.486 -1253.142)" fill="#404041"/>
    <path id="Path_1657" data-name="Path 1657" d="M166.97,109.566H174v1.188H168.25V113.7h5.32v1.122h-5.32v3.287H174.1v1.155H166.97Z" transform="translate(350.617 -1284.967)" fill="#404041"/>
    <path id="Path_1658" data-name="Path 1658" d="M184.773,116a2.72,2.72,0,0,0,.376,1.34,2.447,2.447,0,0,0,2.218.964,3.791,3.791,0,0,0,1.3-.211,1.486,1.486,0,0,0,1.131-1.465,1.281,1.281,0,0,0-.479-1.128,4.738,4.738,0,0,0-1.522-.574l-1.272-.3a5.65,5.65,0,0,1-1.765-.64,2.048,2.048,0,0,1-.895-1.815,2.831,2.831,0,0,1,.88-2.144,3.471,3.471,0,0,1,2.492-.838,4.247,4.247,0,0,1,2.521.736,2.685,2.685,0,0,1,1.037,2.353h-1.235a2.5,2.5,0,0,0-.4-1.2,2.3,2.3,0,0,0-1.956-.758,2.2,2.2,0,0,0-1.6.488,1.558,1.558,0,0,0-.487,1.135,1.115,1.115,0,0,0,.575,1.043,8.28,8.28,0,0,0,1.707.528l1.318.31a3.977,3.977,0,0,1,1.471.614,2.326,2.326,0,0,1,.9,1.973,2.481,2.481,0,0,1-1.142,2.3,5.017,5.017,0,0,1-2.655.693,3.9,3.9,0,0,1-2.761-.925,3.156,3.156,0,0,1-.978-2.488Z" transform="translate(344.724 -1284.833)" fill="#404041"/>
    <path id="Path_1659" data-name="Path 1659" d="M208.07,109.566v1.155H204.8v8.54h-1.327v-8.54H200.21v-1.155Z" transform="translate(338.795 -1284.967)" fill="#404041"/>
    <path id="Path_1660" data-name="Path 1660" d="M218.453,109.566h1.485l3.517,9.695h-1.439l-.983-2.9H217.2l-1.05,2.9H214.8Zm2.158,5.722L219.139,111l-1.564,4.283Z" transform="translate(333.605 -1284.967)" fill="#404041"/>
    <path id="Path_1661" data-name="Path 1661" d="M238.494,109.566v1.155h-3.267v8.54H233.9v-8.54h-3.267v-1.155Z" transform="translate(327.974 -1284.967)" fill="#404041"/>
    <path id="Path_1662" data-name="Path 1662" d="M248.259,109.566h7.035v1.188h-5.755V113.7h5.32v1.122h-5.32v3.287h5.854v1.155h-7.134Z" transform="translate(321.706 -1284.967)" fill="#404041"/>
    <path id="Path_1663" data-name="Path 1663" d="M266.061,116a2.72,2.72,0,0,0,.376,1.34,2.447,2.447,0,0,0,2.218.964,3.791,3.791,0,0,0,1.3-.211,1.486,1.486,0,0,0,1.131-1.465,1.281,1.281,0,0,0-.479-1.128,4.738,4.738,0,0,0-1.522-.574l-1.272-.3a5.65,5.65,0,0,1-1.765-.64,2.048,2.048,0,0,1-.895-1.815,2.831,2.831,0,0,1,.88-2.144,3.471,3.471,0,0,1,2.492-.838,4.247,4.247,0,0,1,2.521.736,2.685,2.685,0,0,1,1.037,2.353h-1.235a2.5,2.5,0,0,0-.4-1.2,2.3,2.3,0,0,0-1.956-.758,2.2,2.2,0,0,0-1.6.488,1.558,1.558,0,0,0-.487,1.135,1.115,1.115,0,0,0,.575,1.043,8.28,8.28,0,0,0,1.707.528l1.318.31a3.978,3.978,0,0,1,1.471.614,2.326,2.326,0,0,1,.895,1.973,2.481,2.481,0,0,1-1.142,2.3,5.017,5.017,0,0,1-2.655.693,3.9,3.9,0,0,1-2.761-.925,3.156,3.156,0,0,1-.978-2.488Z" transform="translate(315.814 -1284.833)" fill="#404041"/>
  </g>
</svg>
