<svg id="Group_422" data-name="Group 422" xmlns="http://www.w3.org/2000/svg" xmlns:xlink="http://www.w3.org/1999/xlink" width="186" height="80.388" viewBox="0 0 186 80.388">
  <defs>
    <clipPath id="clip-path">
      <rect id="Rectangle_203" data-name="Rectangle 203" width="186" height="80.388" fill="none"/>
    </clipPath>
  </defs>
  <g id="Group_421" data-name="Group 421" clip-path="url(#clip-path)">
    <path id="Path_1836" data-name="Path 1836" d="M5.75,83.681,18.46,96.366V43.178L5.75,55.888a19.669,19.669,0,0,0,0,27.793" transform="translate(0 -32.053)" fill="#195627"/>
    <path id="Path_1837" data-name="Path 1837" d="M84.308,21.225,89.6,26.519l5.319,5.319,5.319,5.294,5.294-5.294L84.283,0,78.989,5.294,73.7,10.587l5.294,5.319Z" transform="translate(-54.707 0)" fill="#195627"/>
    <path id="Path_1838" data-name="Path 1838" d="M100.366,148.717l-5.319,5.294-5.319,5.319-5.294,5.294-5.319,5.319-5.294,5.319,5.294,5.294,5.294,5.294,21.25-31.838Z" transform="translate(-54.801 -110.4)" fill="#195627"/>
    <path id="Path_1839" data-name="Path 1839" d="M254.189,93.234a24.624,24.624,0,0,0,34.87,0L281.922,86.1a14.514,14.514,0,0,1-20.644,0,14.739,14.739,0,0,1,0-20.6,14.514,14.514,0,0,1,20.644,0l7.137-7.137a24.711,24.711,0,0,0-17.436-7.232c-22.3,0-31.575,27.157-17.434,42.1" transform="translate(-183.705 -37.958)" fill="#040504" fill-rule="evenodd"/>
    <path id="Path_1840" data-name="Path 1840" d="M416.223,92.361l5.584-6.323a8.564,8.564,0,0,0,3.4,4.093,9.589,9.589,0,0,0,5.264,1.492,8.6,8.6,0,0,0,5.584-1.669,5.487,5.487,0,0,0,2.054-4.493q0-3.338-6.836-6.643-2.215-1.059-3.5-1.733-6.162-3.209-8.538-6.275a11.569,11.569,0,0,1-2.375-7.3,11.762,11.762,0,0,1,4.607-9.548q4.6-3.738,11.955-3.74a16.824,16.824,0,0,1,7.366,1.493,14.982,14.982,0,0,1,5.472,4.67l-5.938,5.681A7.269,7.269,0,0,0,437.518,59a8.305,8.305,0,0,0-4.221-1.011,7.378,7.378,0,0,0-4.815,1.493,4.759,4.759,0,0,0-1.829,3.867q0,3.724,7.253,6.8,1.445.61,2.215.963a24.776,24.776,0,0,1,8.842,6.162,11.871,11.871,0,0,1,2.872,7.831,13.283,13.283,0,0,1-4.51,10.543q-4.509,3.932-12.116,3.932a21.078,21.078,0,0,1-9.244-1.862,12.5,12.5,0,0,1-5.744-5.36" transform="translate(-308.981 -37.28)" fill="#040504" fill-rule="evenodd"/>
    <path id="Path_1841" data-name="Path 1841" d="M575.129,77.182a11.97,11.97,0,0,0,7.917-4.211,12.97,12.97,0,0,0,3.065-8.693q0-7.007-4.48-10.494T568.155,50.3H553.061V99.619h10.545V76.575l12.971,23.044H588.74Zm-1.482-7.26q-2.056,1.4-8.457,1.4h-1.583V58.349h1.583q6.1,0,8.3,1.532t2.207,5.171Q575.7,68.524,573.647,69.922Z" transform="translate(-410.562 -37.337)" fill="#040504" fill-rule="evenodd"/>
    <path id="Path_1842" data-name="Path 1842" d="M693.036,50.643h-1.5V50.22H695v.424h-1.5V54.1h-.464Z" transform="translate(-513.357 -37.281)" fill="#040504"/>
    <path id="Path_1843" data-name="Path 1843" d="M707.238,50.445V54.1h-.464V50.219h.852l1.1,2.308,1.1-2.308h.846V54.1h-.458V50.445l-1.455,3h-.069Z" transform="translate(-524.67 -37.28)" fill="#040504"/>
    <path id="Path_1844" data-name="Path 1844" d="M434.985,273.987h6.905v1.166h-5.649v2.889h5.221v1.1h-5.221v3.226h5.746V283.5h-7Z" transform="translate(-322.909 -203.393)" fill="#040504"/>
    <path id="Path_1845" data-name="Path 1845" d="M474.805,279.742a2.677,2.677,0,0,0,.368,1.315,2.4,2.4,0,0,0,2.178.946,3.722,3.722,0,0,0,1.273-.207,1.459,1.459,0,0,0,1.111-1.438,1.257,1.257,0,0,0-.471-1.107,4.659,4.659,0,0,0-1.493-.563l-1.249-.292a5.543,5.543,0,0,1-1.732-.628,2.011,2.011,0,0,1-.878-1.781,2.78,2.78,0,0,1,.864-2.106,3.407,3.407,0,0,1,2.446-.822,4.16,4.16,0,0,1,2.474.722,2.634,2.634,0,0,1,1.018,2.309H479.5a2.451,2.451,0,0,0-.4-1.173,2.261,2.261,0,0,0-1.919-.745,2.158,2.158,0,0,0-1.571.479,1.53,1.53,0,0,0-.478,1.114,1.1,1.1,0,0,0,.565,1.023,8.11,8.11,0,0,0,1.676.518l1.293.3a3.888,3.888,0,0,1,1.444.6,2.284,2.284,0,0,1,.879,1.937,2.435,2.435,0,0,1-1.121,2.261,4.927,4.927,0,0,1-2.606.68,3.834,3.834,0,0,1-2.71-.907,3.1,3.1,0,0,1-.96-2.442Z" transform="translate(-351.57 -202.703)" fill="#040504"/>
    <path id="Path_1846" data-name="Path 1846" d="M520.171,273.987v1.133h-3.206V283.5h-1.3V275.12h-3.207v-1.133Z" transform="translate(-380.419 -203.393)" fill="#040504"/>
    <path id="Path_1847" data-name="Path 1847" d="M549.8,273.987h1.458l3.452,9.515H553.3l-.965-2.85h-3.764l-1.03,2.85h-1.321Zm2.118,5.616-1.445-4.2-1.535,4.2Z" transform="translate(-405.48 -203.393)" fill="#040504"/>
    <path id="Path_1848" data-name="Path 1848" d="M590.729,273.987v1.133h-3.206V283.5h-1.3V275.12h-3.207v-1.133Z" transform="translate(-432.798 -203.393)" fill="#040504"/>
    <path id="Path_1849" data-name="Path 1849" d="M624.214,273.987h6.905v1.166h-5.649v2.889h5.221v1.1h-5.221v3.226h5.746V283.5h-7Z" transform="translate(-463.383 -203.393)" fill="#040504"/>
    <path id="Path_1850" data-name="Path 1850" d="M664.035,279.742a2.678,2.678,0,0,0,.368,1.315,2.4,2.4,0,0,0,2.178.946,3.722,3.722,0,0,0,1.273-.207,1.459,1.459,0,0,0,1.11-1.438,1.257,1.257,0,0,0-.471-1.107,4.66,4.66,0,0,0-1.493-.563l-1.249-.292a5.542,5.542,0,0,1-1.732-.628,2.011,2.011,0,0,1-.878-1.781,2.78,2.78,0,0,1,.864-2.106,3.408,3.408,0,0,1,2.446-.822,4.16,4.16,0,0,1,2.474.722,2.634,2.634,0,0,1,1.018,2.309h-1.211a2.454,2.454,0,0,0-.4-1.173,2.261,2.261,0,0,0-1.919-.745,2.158,2.158,0,0,0-1.571.479,1.53,1.53,0,0,0-.478,1.114,1.1,1.1,0,0,0,.565,1.023,8.11,8.11,0,0,0,1.676.518l1.293.3a3.888,3.888,0,0,1,1.444.6,2.284,2.284,0,0,1,.879,1.937,2.435,2.435,0,0,1-1.121,2.261,4.927,4.927,0,0,1-2.606.68,3.835,3.835,0,0,1-2.71-.907,3.1,3.1,0,0,1-.96-2.442Z" transform="translate(-492.044 -202.703)" fill="#040504"/>
  </g>
</svg>
